<svg width="47" height="35" viewBox="0 0 47 35" fill="none" xmlns="http://www.w3.org/2000/svg">
<path d="M2.83031 34.0526C0.394682 34.0526 -0.679005 32.7498 0.442284 31.1578L21.0817 1.89377C22.203 0.301796 24.0409 0.301796 25.1635 1.89377L45.8029 31.1578C46.9268 32.7498 45.8518 34.0526 43.4149 34.0526H2.83031Z" fill="#FFCC4D"/>
<path d="M20.1732 10.3531C20.1732 9.0854 21.4439 8.30061 23.1245 8.30061C24.7654 8.30061 26.0771 9.11558 26.0771 10.3531V21.977C26.0771 23.2145 24.7654 24.0295 23.1245 24.0295C21.4439 24.0295 20.1732 23.2437 20.1732 21.977V10.3531ZM19.9259 28.1647C19.9273 27.5405 20.2648 26.9421 20.8644 26.5007C21.464 26.0594 22.2767 25.8111 23.1245 25.8104C23.9723 25.8111 24.785 26.0594 25.3846 26.5007C25.9842 26.9421 26.3217 27.5405 26.3231 28.1647C26.322 28.7892 25.9847 29.3878 25.3851 29.8294C24.7854 30.2709 23.9725 30.5193 23.1245 30.5201C22.2765 30.5193 21.4635 30.2709 20.8639 29.8294C20.2643 29.3878 19.927 28.7892 19.9259 28.1647Z" fill="#231F20"/>
</svg>
